# xmcd
#
# Track frame offsets:
#	150
#	17528
#	35189
#	54614
#	77552
#	97401
#	112774
#	131268
#	148963
#	163908
#	182057
#	198037
#	217528
#	233035
#	248593
#	266779
#
# Disc length: 3789 seconds
#
# Revision: 1
# Processed by: cddbd v1.5.2PL0 Copyright (c) Steve Scherf et al.
# Submitted via: audiograbber 1.83.01
#
DISCID=d80ecb10
DTITLE=Duo Astral Plane - I guess I'm movin'n on
DYEAR=2013
DGENRE=
TTITLE0=Country under my skin
TTITLE1=I feel so helpless
TTITLE2=I guess I'm movin'n on
TTITLE3=Die Zeit scheint einfach still zu steh'n
TTITLE4=Further down the line
TTITLE5=Will you love me
TTITLE6=Dein ist mein Herz
TTITLE7=The road to paradise
TTITLE8=You gotta sing for me
TTITLE9=Like the beat of my heart
TTITLE10=Das Leben ist so wunderbar
TTITLE11=Left alone without you
TTITLE12=Right back
TTITLE13=Until the sun comes up again
TTITLE14=If we're together
TTITLE15=I know that the sun can shine for me
EXTD=
EXTT0=
EXTT1=
EXTT2=
EXTT3=
EXTT4=
EXTT5=
EXTT6=
EXTT7=
EXTT8=
EXTT9=
EXTT10=
EXTT11=
EXTT12=
EXTT13=
EXTT14=
EXTT15=
PLAYORDER=
